HIERARCHY
ROOT Hips
{
	OFFSET 0.000000 0.000000 0.000000 
	CHANNELS 6 Xposition Yposition Zposition Yrotation Zrotation Xrotation 
	JOINT Lumbar
	{
		OFFSET 0.000000 0.000000 0.000000 
		CHANNELS 3 Zrotation Xrotation Yrotation
		JOINT Neck
		{
			OFFSET 0.000000 0.445665 0.000000 
			CHANNELS 3 Zrotation Xrotation Yrotation
			End Site
			{
				OFFSET 0.000000 0.227535 0.000000 
			}
		}
		JOINT RightShoulder
		{
			OFFSET 0.019635 0.377685 0.194865 
			CHANNELS 3 Zrotation Xrotation Yrotation
			JOINT RightElbow
			{
				OFFSET 0.000000 -0.243375 0.000000 
				CHANNELS 2 Zrotation Yrotation
				JOINT RightWrist
				{
					OFFSET 0.000000 -0.264825 0.000000 
					CHANNELS 2 Zrotation Xrotation
					End Site
					{
						OFFSET 0.006600 -0.176220 0.000990 
					}
				}
			}
		}
		JOINT LeftShoulder
		{
			OFFSET 0.019635 0.377685 -0.194865 
			CHANNELS 3 Zrotation Xrotation Yrotation
			JOINT LeftElbow
			{
				OFFSET 0.000000 -0.243375 0.000000 
				CHANNELS 2 Zrotation Yrotation
				JOINT LeftWrist
				{
					OFFSET 0.000000 -0.264825 0.000000 
					CHANNELS 2 Zrotation Xrotation
					End Site
					{
						OFFSET 0.006600 -0.176220 -0.000990 
					}
				}
			}
		}
	}
	JOINT RightHip
	{
		OFFSET 0.052140 -0.069960 0.075570 
		CHANNELS 3 Zrotation Xrotation Yrotation
		JOINT RightKnee
		{
			OFFSET 0.000000 -0.402270 0.000000 
			CHANNELS 1 Zrotation
			JOINT RightAnkle
			{
				OFFSET 0.000000 -0.404085 0.000000 
				CHANNELS 3 Zrotation Xrotation Yrotation
				End Site
				{
					OFFSET 0.204105 -0.089430 0.008415 
				}
			}
		}
	}
	JOINT LeftHip
	{
		OFFSET 0.052140 -0.069960 -0.075570 
		CHANNELS 3 Zrotation Xrotation Yrotation
		JOINT LeftKnee
		{
			OFFSET 0.000000 -0.402270 0.000000 
			CHANNELS 1 Zrotation
			JOINT LeftAnkle
			{
				OFFSET 0.000000 -0.404085 0.000000 
				CHANNELS 3 Zrotation Xrotation Yrotation
				End Site
				{
					OFFSET 0.204105 -0.089430 -0.008415 
				}
			}
		}
	}
}
MOTION
Frames: 20
Frame Time: 0.02
0 0.95578 -0 181.67231 0 2.75153 7.89882 -1.3445 -0.96993 -28.44907 4.18069 3.48696 20.98682 -15.18225 7.54942 10.89342 82.45749 0.45053 1.69887 21.09545 3.29627 0.88741 7.34423 -73.69178 -4.98389 -1.74247 0.60594 3.02612 12.33068 -20.29032 11.81665 -10.64761 -14.79595 0.8126 -2.13191 -7.61213 -16.65636 8.54621 8.32446 13.90732
-0.00014 0.95582 -1e-05 181.67865 0 2.74472 7.96624 -1.3512 -0.96564 -28.4395 4.15556 3.4808 20.9573 -15.16658 7.65341 10.86266 82.49782 0.45863 1.77998 21.18795 3.28476 0.5188 7.44115 -73.5919 -5.08212 -1.59036 0.58519 3.03493 12.33114 -20.26352 11.80585 -10.6349 -14.81609 0.80762 -2.12263 -7.60386 -16.66013 8.54346 8.32145 13.89977
-0.00029 0.95585 -3e-05 181.68484 0 2.73796 8.03336 -1.35784 -0.96134 -28.4297 4.13047 3.47446 20.92775 -15.1508 7.75705 10.83219 82.53782 0.46658 1.8603 21.27945 3.27391 0.15157 7.53749 -73.49293 -5.17972 -1.43918 0.56465 3.04366 12.33158 -20.23703 11.79511 -10.62235 -14.83594 0.80268 -2.11342 -7.59561 -16.6639 8.54075 8.31846 13.89233
-0.00043 0.95588 -4e-05 181.69047 0 2.73131 8.10001 -1.36431 -0.95687 -28.41946 4.1057 3.46767 20.89849 -15.13488 7.85965 10.80211 82.57695 0.47419 1.93836 21.36902 3.26464 -0.2122 7.63195 -73.39658 -5.27574 -1.29015 0.54463 3.05209 12.3317 -20.21128 11.78452 -10.61058 -14.85459 0.79775 -2.10445 -7.58745 -16.66769 8.53819 8.31549 13.88535
-0.00058 0.95592 -6e-05 181.69905 0 2.72404 8.16919 -1.37172 -0.95318 -28.41226 4.0797 3.4637 20.86852 -15.12022 7.96698 10.76945 82.62077 0.48379 2.02857 21.47017 3.24583 -0.59245 7.73575 -73.28625 -5.38011 -1.12962 0.52172 3.06206 12.33324 -20.18132 11.77316 -10.59497 -14.87933 0.79266 -2.09426 -7.5789 -16.67133 8.5349 8.31238 13.87607
-0.00071 0.95594 -7e-05 181.70138 0 2.71812 8.23293 -1.37711 -0.94792 -28.39815 4.056 3.45346 20.83955 -15.10255 8.0647 10.74262 82.65458 0.48904 2.09285 21.5458 3.24801 -0.93869 7.82013 -73.20568 -5.46673 -0.99363 0.50505 3.06879 12.33196 -20.16047 11.76345 -10.5873 -14.89135 0.78798 -2.08665 -7.57113 -16.67532 8.53311 8.30956 13.87159
-0.00077 0.95596 -6e-05 181.68586 0 2.7158 8.28296 -1.37704 -0.93732 -28.36814 4.04108 3.42784 20.81714 -15.07892 8.13348 10.72874 82.66104 0.48317 2.08568 21.55869 3.30352 -1.18691 7.84748 -73.20768 -5.50448 -0.92361 0.50493 3.06614 12.32095 -20.16391 11.75806 -10.60377 -14.86551 0.7839 -2.08621 -7.56586 -16.68018 8.536 8.30765 13.8813
-0.00081 0.95597 -5e-05 181.66407 0 2.71487 8.32731 -1.37492 -0.92526 -28.33074 4.02808 3.39563 20.79516 -15.05192 8.19305 10.72131 82.65738 0.47279 2.05224 21.54466 3.38099 -1.40173 7.8558 -73.23976 -5.52418 -0.87866 0.51127 3.0603 12.30748 -20.17677 11.75438 -10.6279 -14.82729 0.78036 -2.0884 -7.56131 -16.68545 8.54034 8.30604 13.89573
-0.00085 0.95598 -4e-05 181.64557 0 2.71337 8.37345 -1.37365 -0.91456 -28.29435 4.01252 3.365 20.77027 -15.02469 8.25849 10.71294 82.65809 0.46379 2.03081 21.53764 3.45171 -1.63497 7.87519 -73.25769 -5.55227 -0.82324 0.51507 3.05622 12.29634 -20.18583 11.75004 -10.64702 -14.79651 0.77691 -2.08936 -7.55622 -16.69055 8.54368 8.3042 13.90736
-0.00091 0.95599 -2e-05 181.62538 0 2.71157 8.42289 -1.37267 -0.9011 -28.26704 4.00382 3.33986 20.75623 -15.0043 8.31689 10.69614 82.65957 0.45733 2.00933 21.55168 3.50941 -1.85492 7.88469 -73.27722 -5.58018 -0.76368 0.5171 3.05083 12.2799 -20.19262 11.74515 -10.67239 -14.75814 0.77199 -2.0904 -7.55207 -16.69541 8.54839 8.30265 13.9216
-0.00093 0.956 -1e-05 181.607 0 2.71076 8.46415 -1.37064 -0.89281 -28.22011 3.98163 3.30234 20.72046 -14.96961 8.38766 10.69845 82.65729 0.44486 1.98139 21.51666 3.59865 -2.09408 7.90984 -73.30111 -5.60338 -0.71902 0.5245 3.04741 12.27411 -20.20665 11.74188 -10.68682 -14.73255 0.77034 -2.09195 -7.54606 -16.70108 8.55067 8.30068 13.93171
-0.00085 0.95603 -1e-05 181.59721 0 2.71227 8.48412 -1.36618 -0.90118 -28.11285 3.91878 3.22697 20.6196 -14.8905 8.49723 10.75149 82.64531 0.41461 1.94529 21.34418 3.77657 -2.39961 7.98612 -73.32484 -5.62445 -0.70716 0.54376 3.05027 12.29663 -20.23624 11.74201 -10.66704 -14.7459 0.77691 -2.09374 -7.53531 -16.70711 8.54505 8.29649 13.9277
-0.00073 0.95607 0 181.58913 0 2.71477 8.49616 -1.36084 -0.91446 -27.98829 3.84291 3.14043 20.49889 -14.79849 8.62009 10.82344 82.63041 0.37936 1.90343 21.12599 3.98414 -2.72489 8.07776 -73.35283 -5.63991 -0.71015 0.56846 3.05518 12.33027 -20.27326 11.74384 -10.63638 -14.77243 0.78685 -2.09607 -7.52255 -16.71421 8.53707 8.29202 13.91962
-0.00063 0.95611 1e-05 181.57888 0 2.71683 8.5118 -1.35586 -0.92412 -27.87602 3.77483 3.06237 20.38914 -14.71582 8.73406 10.8873 82.61779 0.34729 1.8615 20.93289 4.17365 -3.03746 8.1608 -73.38201 -5.6541 -0.70739 0.59153 3.05914 12.35993 -20.30817 11.74526 -10.61209 -14.79247 0.79577 -2.09848 -7.51034 -16.72212 8.53076 8.28836 13.91447
-0.00054 0.95615 1e-05 181.57414 0 2.71876 8.52694 -1.35067 -0.93945 -27.74195 3.69858 2.96938 20.26672 -14.61719 8.85576 10.95005 82.60006 0.30932 1.82817 20.71592 4.3835 -3.36368 8.25184 -73.39898 -5.68501 -0.70003 0.61118 3.06318 12.38497 -20.33776 11.74511 -10.58203 -14.81408 0.8027 -2.09954 -7.49972 -16.72493 8.52207 8.28192 13.9051
-0.00041 0.95617 3e-05 181.55862 0 2.72137 8.54172 -1.34609 -0.94433 -27.65285 3.63666 2.90536 20.17159 -14.55023 8.96965 11.0185 82.59333 0.2849 1.77817 20.54406 4.55749 -3.66778 8.32782 -73.44208 -5.67847 -0.70703 0.63929 3.06746 12.42228 -20.38045 11.74874 -10.56135 -14.83582 0.81438 -2.10359 -7.48528 -16.73815 8.51765 8.28107 13.90327
-0.0002 0.95614 9e-05 181.51155 0 2.72402 8.55356 -1.34049 -0.9178 -27.6619 3.61346 2.91983 20.11027 -14.56114 9.01622 11.10808 82.60963 0.27752 1.66297 20.45895 4.62792 -3.89809 8.37964 -73.55529 -5.58476 -0.7352 0.6883 3.0728 12.49062 -20.45414 11.76121 -10.56881 -14.85381 0.84024 -2.11478 -7.46134 -16.78408 8.52638 8.29678 13.92515
5e-05 0.95608 0.00017 181.45419 0 2.72759 8.56588 -1.33605 -0.88103 -27.72272 3.60567 2.96434 20.08682 -14.60652 9.06272 11.20175 82.63839 0.28719 1.53429 20.43103 4.66117 -4.10855 8.41289 -73.69455 -5.45216 -0.77908 0.74582 3.07816 12.57061 -20.54123 11.77759 -10.58609 -14.87171 0.8706 -2.12909 -7.43389 -16.83984 8.53929 8.31789 13.95443
0.00027 0.95603 0.00024 181.40206 0 2.73182 8.58082 -1.33309 -0.84954 -27.77941 3.5937 2.99837 20.07515 -14.64478 9.13686 11.28576 82.66714 0.30429 1.42654 20.40802 4.70886 -4.33156 8.43958 -73.82259 -5.3261 -0.8265 0.80013 3.08292 12.64581 -20.62448 11.79306 -10.5992 -14.89033 0.89736 -2.14261 -7.4072 -16.88811 8.54981 8.33588 13.97901
0.00051 0.95599 0.00032 181.34634 0 2.73166 8.58432 -1.32182 -0.8147 -27.75265 3.57016 3.02004 19.93607 -14.64747 9.09387 11.39956 82.67305 0.26049 1.2597 20.24912 4.76572 -4.53435 8.52608 -73.94878 -5.24156 -0.83296 0.8518 3.0902 12.7207 -20.69892 11.80517 -10.61092 -14.90658 0.92992 -2.15357 -7.38241 -16.94842 8.56248 8.35683 14.00893
